<svg width="164" height="28" viewBox="0 0 164 28" xmlns="http://www.w3.org/2000/svg"><title>Untitled 4</title><path d="M34.372 14.009c0-7.45 6.04-13.49 13.491-13.49 7.452 0 13.492 6.04 13.492 13.49s-6.04 13.49-13.492 13.49c-7.45 0-13.491-6.04-13.491-13.49zm18.96-7.359H42.393c-1.038 0-1.89.85-1.89 1.889v10.938c0 1.039.852 1.889 1.89 1.889h10.939c1.038 0 1.888-.85 1.888-1.889V8.539c0-1.039-.85-1.889-1.888-1.889zm-.36 13.024H42.725a.586.586 0 0 1-.585-.585v-6.216h1.351a4.308 4.308 0 0 0-.189 1.263c0 2.448 2.048 4.432 4.575 4.432 2.525 0 4.573-1.984 4.573-4.432 0-.439-.066-.862-.188-1.263h1.295v6.216a.587.587 0 0 1-.585.585zm-.084-8.479h-1.663a.664.664 0 0 1-.664-.662V8.947c0-.364.298-.662.664-.662h1.663c.364 0 .662.298.662.662v1.586a.664.664 0 0 1-.662.662zm-5.011 5.645c-1.633 0-2.956-1.282-2.956-2.865 0-1.58 1.323-2.863 2.956-2.863 1.632 0 2.955 1.283 2.955 2.863 0 1.583-1.323 2.865-2.955 2.865zM82.072 27.5c-7.45 0-13.492-6.04-13.492-13.49S74.621.52 82.072.52c7.451 0 13.491 6.04 13.491 13.49S89.523 27.5 82.072 27.5zm7.934-17.845a5.954 5.954 0 0 1-1.735.482 3.067 3.067 0 0 0 1.328-1.694 6 6 0 0 1-1.92.743 2.997 2.997 0 0 0-2.204-.966c-1.668 0-3.02 1.37-3.02 3.061 0 .24.026.473.078.698a8.54 8.54 0 0 1-6.228-3.198c-.26.452-.408.977-.408 1.539 0 1.062.533 1.999 1.344 2.547a2.978 2.978 0 0 1-1.369-.383v.04a3.052 3.052 0 0 0 2.424 3 2.997 2.997 0 0 1-1.365.053 3.031 3.031 0 0 0 2.822 2.127 6.013 6.013 0 0 1-4.473 1.267 8.475 8.475 0 0 0 4.63 1.376c5.559 0 8.596-4.666 8.596-8.711 0-.133-.002-.264-.008-.397a6.162 6.162 0 0 0 1.508-1.584zM13.497 27.5C6.046 27.5.006 21.46.006 14.009c0-7.45 6.04-13.49 13.491-13.49 7.45 0 13.49 6.04 13.49 13.49 0 7.451-6.04 13.491-13.49 13.491zm6.114-13.578v-2.478h-2.35v-1.387c0-.651.497-1.178 1.109-1.178h1.24V6.64h-2.69c-1.636 0-2.671 1.258-2.671 2.998v1.806h-1.994v2.478h1.994v7.413h3.013v-7.413h2.35zm83.507.088c0-7.45 5.953-13.49 13.294-13.49 7.343 0 13.294 6.04 13.294 13.49s-5.951 13.49-13.294 13.49c-7.341 0-13.294-6.04-13.294-13.49zm17.034-2.868c.016-.128.024-.257.024-.389 0-1.916-1.688-3.475-3.764-3.475-2.075 0-3.763 1.559-3.763 3.475 0 1.916 1.688 3.474 3.763 3.474 1.934 0 3.53-1.352 3.74-3.085zm-3.74-1.828c.86 0 1.558.646 1.558 1.44 0 .792-.698 1.437-1.558 1.437-.858 0-1.558-.645-1.558-1.438 0-.793.7-1.439 1.558-1.439zm1.523 7.747a7.381 7.381 0 0 0 2.185-.835c.515-.3.67-.928.346-1.404-.324-.477-1.005-.62-1.52-.32a5.117 5.117 0 0 1-5.068 0c-.516-.3-1.196-.157-1.52.32-.324.476-.17 1.104.346 1.404a7.39 7.39 0 0 0 2.185.835l-2.104 1.943a.964.964 0 0 0 0 1.44c.216.198.498.298.78.298.282 0 .565-.1.78-.298l2.067-1.91 2.068 1.91a1.17 1.17 0 0 0 1.559 0 .963.963 0 0 0 0-1.44l-2.104-1.943zM150.176 27.5c7.403 0 13.404-6.001 13.404-13.404S157.58.692 150.176.692c-7.402 0-13.404 6.001-13.404 13.404S142.774 27.5 150.176 27.5zm-.506-7.525h1.052s.318-.035.48-.21c.15-.16.145-.462.145-.462s-.02-1.412.634-1.62c.646-.204 1.475 1.365 2.355 1.968.664.457 1.17.357 1.17.357l2.35-.033s1.23-.076.646-1.043c-.047-.079-.34-.715-1.747-2.022-1.474-1.368-1.277-1.146.499-3.513 1.08-1.44 1.513-2.32 1.378-2.697-.129-.36-.924-.264-.924-.264l-2.646.016s-.197-.027-.342.06c-.142.086-.234.285-.234.285s-.419 1.115-.977 2.063c-1.179 2.001-1.65 2.107-1.842 1.982-.448-.29-.337-1.163-.337-1.784 0-1.939.295-2.747-.572-2.957-.288-.07-.5-.115-1.235-.123-.945-.01-1.744.003-2.196.225-.302.147-.534.476-.392.495.175.023.57.107.78.393.272.369.262 1.197.262 1.197s.156 2.283-.364 2.567c-.356.194-.846-.203-1.896-2.018-.539-.93-.945-1.958-.945-1.958s-.078-.192-.218-.295c-.17-.125-.407-.164-.407-.164l-2.515.016s-.377.01-.516.175c-.123.146-.01.448-.01.448s1.97 4.606 4.199 6.927c2.044 2.129 4.365 1.989 4.365 1.989z" fill="#6A7582" fill-rule="evenodd"/></svg>