<svg xmlns="http://www.w3.org/2000/svg" width="49" height="30" viewBox="0 0 49 30">
  <g fill="#00B956">
    <path d="M44.5,13.38 L47.96,9.38 L44.98,6.7 L41.34,11 C39.7003145,9.94772811 37.9661532,9.05051724 36.16,8.32 L38.36,2.72 L34.64,1.26 L32.36,7.06 C30.44,6.567 28.478,6.26 26.5,6.14 L26.5,0 L22.5,0 L22.5,6.14 C20.52,6.265 18.56,6.58 16.64,7.08 L14.36,1.28 L10.64,2.74 L12.84,8.34 C11.0345336,9.06400903 9.30038542,9.95451757 7.66,11 L4.02,6.7 L0.98,9.3 L4.44,13.3 C3.04369803,14.4418936 1.72728149,15.6781224 0.5,17 L3.42,20 C8.60887135,13.6963578 16.3354834,10.0309821 24.5,10 C32.6611276,9.99598129 40.3896924,13.6692535 45.54,20 L48.5,17 C47.2504096,15.7039086 45.9139828,14.4944424 44.5,13.38 L44.5,13.38 Z"/>
    <path d="M24.5,14 C20.081722,14 16.5,17.581722 16.5,22 C16.5,26.418278 20.081722,30 24.5,30 C28.918278,30 32.5,26.418278 32.5,22 C32.5,17.581722 28.918278,14 24.5,14 Z M24.5,26 C22.29,26 20.5,24.21 20.5,22 C20.5,19.79 22.29,18 24.5,18 C26.71,18 28.5,19.79 28.5,22 C28.5,24.21 26.71,26 24.5,26 Z"/>
  </g>
</svg>
