<svg xmlns="http://www.w3.org/2000/svg" width="48" height="32" viewBox="0 0 48 32">
  <path fill="#676868" d="M3.64,18.8870324 L0.34,23.5070324 L3.6,25.9870324 L6.9,21.3870324 C8.59527063,22.4178791 10.3830172,23.2883175 12.24,23.9870324 L10.5,29.4070324 L14.34,30.6670324 L16.06,25.2670324 C18.0240539,25.7812385 20.0335569,26.102759 22.06,26.2270324 L22.06,31.9870324 L26.06,31.9870324 L26.06,26.3070324 C28.0864431,26.182759 30.0959461,25.8612385 32.06,25.3470324 L33.78,30.7470324 L37.62,29.4870324 L35.76,23.9870324 C37.6229902,23.2373491 39.410943,22.3132387 41.1,21.2270324 L44.4,25.9870324 L47.66,23.5870324 L44.36,18.9670324 C45.6666433,17.8651992 46.8837964,16.6614213 48,15.3670324 L44.98,12.6670324 C35.09,24.2650324 17.668,25.6490324 6.07,15.7570324 C4.96011269,14.810144 3.92688834,13.7769197 2.98,12.6670324 L0,15.3670324 C1.11928034,16.6338785 2.33635812,17.8108329 3.64,18.8870324 L3.64,18.8870324 Z M38,7.82703238 L40,4.28703238 C30.0991103,-1.42901079 17.9008897,-1.42901079 8,4.28703238 L10,7.82703238 C18.663,2.82703238 29.337,2.82703238 38,7.82703238 L38,7.82703238 Z"/>
</svg>
